# xmcd CD database file
#
# Track frame offsets:
#	150
#	15800
#	32880
#	51463
#	71293
#	88033
#	102660
#	117280
#	136118
#	152323
#	173754
#	189415
#	206548
#	226373
#
# Disc length: 3275 seconds
#
# Revision: 7
# Processed by: cddbd v1.5.2PL0 Copyright (c) Steve Scherf et al.
# Submitted via: CDex 1.70beta3
#
DISCID=ad0cc90e
DTITLE=Enrique Iglesias - Escape
DYEAR=2001
DGENRE=Pop-Folk
TTITLE0=Escape
TTITLE1=Don't Turn Off The Lights
TTITLE2=Love To See You Cry
TTITLE3=Hero
TTITLE4=I Will Survive
TTITLE5=Love 4 Fun
TTITLE6=Maybe
TTITLE7=One Night Stand
TTITLE8=She Be The One
TTITLE9=If The World Crashes Down
TTITLE10=Escapar
TTITLE11=No apagues la luz
TTITLE12=Heroe
TTITLE13=Hero (Metromix)
EXTD=YEAR: 2001
EXTT0=
EXTT1=
EXTT2=
EXTT3=
EXTT4=
EXTT5=
EXTT6=
EXTT7=
EXTT8=
EXTT9=
EXTT10=
EXTT11=
EXTT12=
EXTT13=
PLAYORDER=
